<svg width="17" height="17" viewBox="0 0 17 17" fill="none" xmlns="http://www.w3.org/2000/svg">
<path d="M12.3724 10.1771C12.2057 10.0938 11.1224 9.59375 10.9557 9.51042C10.789 9.42708 10.6224 9.42708 10.4557 9.59375C10.289 9.76042 9.95569 10.2604 9.78902 10.4271C9.70569 10.5938 9.53902 10.5938 9.37236 10.5104C8.78902 10.2604 8.20569 9.92708 7.70569 9.51042C7.28902 9.09375 6.87236 8.59375 6.53902 8.09375C6.45569 7.92708 6.53902 7.76042 6.62236 7.67708C6.70569 7.59375 6.78902 7.42708 6.95569 7.34375C7.03902 7.26042 7.12236 7.09375 7.12236 7.01042C7.20569 6.92708 7.20569 6.76042 7.12236 6.67708C7.03902 6.59375 6.62236 5.59375 6.45569 5.17708C6.37236 4.59375 6.20569 4.59375 6.03902 4.59375C5.95569 4.59375 5.78902 4.59375 5.62236 4.59375C5.45569 4.59375 5.20569 4.76042 5.12236 4.84375C4.62236 5.34375 4.37236 5.92708 4.37236 6.59375C4.45569 7.34375 4.70569 8.09375 5.20569 8.76042C6.12236 10.0938 7.28902 11.1771 8.70569 11.8438C9.12236 12.0104 9.45569 12.1771 9.87236 12.2604C10.289 12.4271 10.7057 12.4271 11.2057 12.3438C11.789 12.2604 12.289 11.8438 12.6224 11.3438C12.789 11.0104 12.789 10.6771 12.7057 10.3438C12.7057 10.3438 12.539 10.2604 12.3724 10.1771ZM14.4557 2.59375C11.2057 -0.65625 5.95569 -0.65625 2.70569 2.59375C0.0390217 5.26042 -0.460978 9.34375 1.37236 12.5938L0.205688 16.8438L4.62236 15.6771C5.87236 16.3438 7.20569 16.6771 8.53902 16.6771C13.1224 16.6771 16.789 13.0104 16.789 8.42708C16.8724 6.26042 15.9557 4.17708 14.4557 2.59375ZM12.2057 14.2604C11.1224 14.9271 9.87236 15.3438 8.53902 15.3438C7.28902 15.3438 6.12236 15.0104 5.03902 14.4271L4.78902 14.2604L2.20569 14.9271L2.87236 12.4271L2.70569 12.1771C0.705688 8.84375 1.70569 4.67708 4.95569 2.59375C8.20569 0.510417 12.3724 1.59375 14.3724 4.76042C16.3724 8.01042 15.4557 12.2604 12.2057 14.2604Z" fill="white"/>
</svg>
